<svg viewBox="0 0 12 12" width="60px" height="60px" xmlns="http://www.w3.org/2000/svg"><path fill-rule="evenodd" d="M 1,0 5,0 5,1 7,1 7,0 11,0 11,2 12,2 12,5 11,5 11,6 12,6 12,12 9,12 9,10 8,10 8,11 4,11 4,10 3,10 3,12 0,12 0,6 1,6 1,5 0,5 0,2 1,2z" fill="#B6D94C"/><path fill-rule="evenodd" d="M 2,1 4,1 4,3 2,3z" fill="#ffffff"/><path fill-rule="evenodd" d="M 8,1 10,1 10,3 8,3z" fill="#ffffff"/><path fill-rule="evenodd" d="M 5,2 7,2 7,3 5,3z" fill="#ffffff"/><path fill-rule="evenodd" d="M 1,3 2,3 2,4 1,4z" fill="#ffffff"/><path fill-rule="evenodd" d="M 10,3 11,3 11,4 10,4z" fill="#ffffff"/><path fill-rule="evenodd" d="M 2,4 3,4 3,5 2,5z" fill="#ffffff"/><path fill-rule="evenodd" d="M 4,4 8,4 8,5 4,5z" fill="#ffffff"/><path fill-rule="evenodd" d="M 9,4 10,4 10,5 9,5z" fill="#ffffff"/><path fill-rule="evenodd" d="M 3,5 4,5 4,6 3,6z" fill="#ffffff"/><path fill-rule="evenodd" d="M 8,5 9,5 9,6 8,6z" fill="#ffffff"/><path fill-rule="evenodd" d="M 1,7 2,7 2,8 1,8z" fill="#ffffff"/><path fill-rule="evenodd" d="M 3,7 4,7 4,8 3,8z" fill="#ffffff"/><path fill-rule="evenodd" d="M 5,7 7,7 7,10 5,10z" fill="#ffffff"/><path fill-rule="evenodd" d="M 8,7 9,7 9,8 8,8z" fill="#ffffff"/><path fill-rule="evenodd" d="M 10,7 11,7 11,8 10,8z" fill="#ffffff"/><path fill-rule="evenodd" d="M 2,8 3,8 3,9 2,9z" fill="#ffffff"/><path fill-rule="evenodd" d="M 9,8 10,8 10,9 9,9z" fill="#ffffff"/><path fill-rule="evenodd" d="M 1,10 2,10 2,11 1,11z" fill="#ffffff"/><path fill-rule="evenodd" d="M 10,10 11,10 11,11 10,11z" fill="#ffffff"/></svg>